<svg width="25" height="24" viewBox="0 0 25 24" fill="none" xmlns="http://www.w3.org/2000/svg">
<g id="&#195;&#141;cones">
<path id="Vector" d="M12.5011 22C10.8566 22.0004 9.23739 21.5951 7.78695 20.82C6.33651 20.045 5.0996 18.9241 4.18581 17.5567C3.27201 16.1893 2.70954 14.6177 2.54823 12.9809C2.38691 11.3442 2.63174 9.69295 3.26101 8.17346C3.89028 6.65396 4.88457 5.31315 6.15579 4.26981C7.42701 3.22646 8.93592 2.51279 10.5488 2.19203C12.1617 1.87127 13.8289 1.95332 15.4025 2.4309C16.9761 2.90849 18.4077 3.76687 19.5703 4.93C19.6822 5.04148 19.7709 5.17396 19.8315 5.31982C19.892 5.46568 19.9232 5.62206 19.9232 5.78C19.9232 5.93794 19.892 6.09432 19.8315 6.24018C19.7709 6.38604 19.6822 6.51852 19.5703 6.63C19.3426 6.85114 19.0378 6.97484 18.7204 6.97484C18.403 6.97484 18.0982 6.85114 17.8705 6.63C17.1683 5.92046 16.3319 5.35785 15.41 4.97498C14.4881 4.59211 13.4993 4.39665 12.5011 4.4C11.0496 4.40102 9.62877 4.81775 8.40664 5.60091C7.18452 6.38406 6.21222 7.50088 5.60475 8.81927C4.99729 10.1377 4.78006 11.6025 4.97876 13.0404C5.17746 14.4784 5.78379 15.8294 6.72602 16.9336C7.66825 18.0378 8.90697 18.849 10.2957 19.2713C11.6844 19.6936 13.1649 19.7093 14.5623 19.3166C15.9597 18.9239 17.2153 18.1391 18.1808 17.0552C19.1462 15.9712 19.7811 14.6334 20.0103 13.2H12.5011C12.1828 13.2 11.8777 13.0736 11.6526 12.8485C11.4276 12.6235 11.3012 12.3183 11.3012 12C11.3012 11.6817 11.4276 11.3765 11.6526 11.1515C11.8777 10.9264 12.1828 10.8 12.5011 10.8H21.3001C21.6184 10.8 21.9235 10.9264 22.1486 11.1515C22.3736 11.3765 22.5 11.6817 22.5 12C22.4947 14.6505 21.4396 17.191 19.5655 19.0652C17.6915 20.9394 15.1513 21.9947 12.5011 22Z" fill="#2B2B2B"/>
</g>
</svg>
