<svg width="178" height="178" viewBox="0 0 178 178" fill="none" xmlns="http://www.w3.org/2000/svg">
<g id="Group">
<path id="Vector" fill-rule="evenodd" clip-rule="evenodd" d="M88.9998 14.8335C48.0375 14.8335 14.8331 48.0379 14.8331 89.0002C14.8331 129.962 48.0375 163.167 88.9998 163.167C129.962 163.167 163.166 129.962 163.166 89.0002C163.166 48.0379 129.962 14.8335 88.9998 14.8335ZM63.0415 63.0418C63.0415 59.6329 63.7129 56.2574 65.0174 53.108C66.322 49.9586 68.234 47.097 70.6445 44.6865C73.0549 42.2761 75.9166 40.364 79.066 39.0595C82.2154 37.7549 85.5909 37.0835 88.9998 37.0835C92.4087 37.0835 95.7842 37.7549 98.9336 39.0595C102.083 40.364 104.945 42.2761 107.355 44.6865C109.766 47.097 111.678 49.9586 112.982 53.108C114.287 56.2574 114.958 59.6329 114.958 63.0418C114.958 69.9264 112.223 76.529 107.355 81.3971C102.487 86.2653 95.8844 89.0002 88.9998 89.0002C82.1152 89.0002 75.5126 86.2653 70.6445 81.3971C65.7764 76.529 63.0415 69.9264 63.0415 63.0418ZM39.145 121.188C51.375 111.191 69.2344 103.833 88.9998 103.833C108.765 103.833 126.625 111.191 138.855 121.188C133.478 129.522 126.097 136.374 117.388 141.116C108.678 145.859 98.9171 148.34 88.9998 148.333C79.0825 148.34 69.322 145.859 60.6121 141.116C51.9021 136.374 44.5211 129.522 39.145 121.188Z" fill="#2B2B2B"/>
</g>
</svg>
